<svg xmlns="http://www.w3.org/2000/svg" xmlns:xlink="http://www.w3.org/1999/xlink" width="500" zoomAndPan="magnify" viewBox="0 0 375 374.999991" height="500" preserveAspectRatio="xMidYMid meet" version="1.2"><defs><clipPath id="abf720087c"><path d="M 250.476562 112.507812 L 325.339844 112.507812 L 325.339844 187.261719 L 250.476562 187.261719 Z M 250.476562 112.507812 "/></clipPath><clipPath id="771975a204"><path d="M 243.5625 156 L 266 156 L 266 178 L 243.5625 178 Z M 243.5625 156 "/></clipPath><clipPath id="96ee75edae"><path d="M 297 106.367188 L 329.8125 106.367188 L 329.8125 139.191406 L 297 139.191406 Z M 297 106.367188 "/></clipPath></defs><g id="9b7a7ca47e"><g style="fill:#6b705c;fill-opacity:1;"><g transform="translate(33.294282, 169.533205)"><path style="stroke:none" d="M 22.6875 7.09375 C 18.726562 7.09375 15.050781 6.585938 11.65625 5.578125 C 8.257812 4.578125 5.507812 3.039062 3.40625 0.96875 C 1.3125 -1.09375 0.265625 -3.691406 0.265625 -6.828125 C 0.265625 -9.242188 1.03125 -11.664062 2.5625 -14.09375 C 8 -22.707031 17.273438 -29.113281 30.390625 -33.3125 C 28.441406 -35.550781 27.46875 -38.09375 27.46875 -40.9375 C 27.46875 -43.238281 28.085938 -45.210938 29.328125 -46.859375 C 31.742188 -50.171875 35.40625 -52.921875 40.3125 -55.109375 C 43.082031 -56.285156 45.898438 -57.195312 48.765625 -57.84375 C 51.628906 -58.5 54.539062 -58.828125 57.5 -58.828125 C 61.15625 -58.828125 63.941406 -58.234375 65.859375 -57.046875 C 67.785156 -55.867188 68.75 -54.21875 68.75 -52.09375 C 68.75 -50.613281 68.347656 -49.269531 67.546875 -48.0625 C 66.753906 -46.851562 65.765625 -45.878906 64.578125 -45.140625 C 63.398438 -44.398438 62.191406 -44.03125 60.953125 -44.03125 C 59.117188 -44.03125 58.203125 -44.472656 58.203125 -45.359375 C 58.203125 -45.890625 58.585938 -46.15625 59.359375 -46.15625 C 59.597656 -46.15625 59.90625 -46.109375 60.28125 -46.015625 C 60.664062 -45.929688 60.945312 -45.890625 61.125 -45.890625 C 62.363281 -45.890625 63.457031 -46.539062 64.40625 -47.84375 C 65.351562 -49.144531 65.828125 -50.441406 65.828125 -51.734375 C 65.828125 -53.628906 64.925781 -54.988281 63.125 -55.8125 C 61.320312 -56.632812 59.296875 -57.046875 57.046875 -57.046875 C 51.441406 -57.046875 45.953125 -55.25 40.578125 -51.65625 C 34.910156 -47.925781 32.078125 -43.726562 32.078125 -39.0625 C 32.078125 -37.351562 32.664062 -35.757812 33.84375 -34.28125 C 35.90625 -34.9375 37.835938 -35.394531 39.640625 -35.65625 C 41.441406 -35.925781 43.171875 -36.0625 44.828125 -36.0625 C 50.492188 -36.0625 53.328125 -34.96875 53.328125 -32.78125 C 53.328125 -31.78125 52.914062 -30.910156 52.09375 -30.171875 C 51.269531 -29.429688 50.222656 -28.867188 48.953125 -28.484375 C 47.679688 -28.097656 46.394531 -27.90625 45.09375 -27.90625 C 43.738281 -27.90625 42.234375 -28.082031 40.578125 -28.4375 C 38.921875 -28.789062 37.320312 -29.257812 35.78125 -29.84375 C 34.25 -30.4375 32.953125 -31.117188 31.890625 -31.890625 C 26.335938 -30.296875 21.421875 -27.828125 17.140625 -24.484375 C 12.859375 -21.148438 9.6875 -17.414062 7.625 -13.28125 C 6.5 -11.039062 5.9375 -8.859375 5.9375 -6.734375 C 5.9375 -4.128906 6.671875 -2 8.140625 -0.34375 C 9.617188 1.300781 11.582031 2.503906 14.03125 3.265625 C 16.488281 4.035156 19.191406 4.421875 22.140625 4.421875 C 27.046875 4.421875 31.921875 3.640625 36.765625 2.078125 C 41.609375 0.515625 45.742188 -1.800781 49.171875 -4.875 C 53.835938 -9.007812 56.171875 -13.347656 56.171875 -17.890625 C 56.171875 -21.492188 54.425781 -23.296875 50.9375 -23.296875 C 49.101562 -23.296875 47.066406 -22.835938 44.828125 -21.921875 C 42.585938 -21.003906 40.476562 -19.78125 38.5 -18.25 C 36.519531 -16.71875 34.878906 -15.035156 33.578125 -13.203125 C 32.273438 -11.367188 31.625 -9.507812 31.625 -7.625 C 31.625 -5.726562 32.453125 -4.570312 34.109375 -4.15625 C 34.703125 -3.925781 35 -3.632812 35 -3.28125 C 35 -2.800781 34.554688 -2.5625 33.671875 -2.5625 C 30.535156 -2.5625 28.96875 -4.304688 28.96875 -7.796875 C 28.96875 -10.097656 29.644531 -12.28125 31 -14.34375 C 32.363281 -16.414062 34.125 -18.25 36.28125 -19.84375 C 38.4375 -21.4375 40.78125 -22.691406 43.3125 -23.609375 C 45.851562 -24.523438 48.304688 -24.984375 50.671875 -24.984375 C 53.453125 -24.984375 55.609375 -24.375 57.140625 -23.15625 C 58.679688 -21.945312 59.453125 -19.988281 59.453125 -17.28125 C 59.453125 -11.78125 56.410156 -6.609375 50.328125 -1.765625 C 46.484375 1.359375 42.226562 3.613281 37.5625 5 C 32.894531 6.394531 27.9375 7.09375 22.6875 7.09375 Z M 44.296875 -29.859375 C 47.484375 -29.859375 49.078125 -30.773438 49.078125 -32.609375 C 49.078125 -33.429688 47.484375 -33.84375 44.296875 -33.84375 C 42.878906 -33.84375 41.414062 -33.753906 39.90625 -33.578125 C 38.40625 -33.398438 36.882812 -33.164062 35.34375 -32.875 C 37.882812 -30.863281 40.867188 -29.859375 44.296875 -29.859375 Z M 44.296875 -29.859375 "/></g></g><g style="fill:#6b705c;fill-opacity:1;"><g transform="translate(94.511284, 169.533205)"><path style="stroke:none" d="M 2.921875 0.265625 C 2.566406 0.265625 2.0625 0.101562 1.40625 -0.21875 C 0.757812 -0.539062 0.171875 -0.921875 -0.359375 -1.359375 C -0.890625 -1.804688 -1.179688 -2.207031 -1.234375 -2.5625 C -1.296875 -3.039062 -0.988281 -4.382812 -0.3125 -6.59375 C 0.363281 -8.8125 1.441406 -11.84375 2.921875 -15.6875 C 4.398438 -19.582031 5.640625 -22.59375 6.640625 -24.71875 C 7.648438 -26.84375 8.390625 -28.113281 8.859375 -28.53125 C 9.097656 -28.757812 9.421875 -28.875 9.828125 -28.875 C 10.484375 -28.875 11.101562 -28.59375 11.6875 -28.03125 C 12.28125 -27.476562 12.609375 -26.816406 12.671875 -26.046875 C 12.671875 -25.984375 11.191406 -22.5 8.234375 -15.59375 C 5.335938 -8.914062 3.976562 -4.925781 4.15625 -3.625 C 6.757812 -4.457031 11.101562 -7.382812 17.1875 -12.40625 C 20.851562 -15.476562 23.492188 -18.269531 25.109375 -20.78125 C 26.734375 -23.289062 27.546875 -25.546875 27.546875 -27.546875 C 27.546875 -28.734375 27.265625 -29.8125 26.703125 -30.78125 C 26.148438 -31.757812 25.132812 -32.570312 23.65625 -33.21875 C 23.238281 -33.394531 23.03125 -33.660156 23.03125 -34.015625 C 23.03125 -34.546875 23.359375 -34.8125 24.015625 -34.8125 C 25.722656 -34.8125 27.210938 -34.25 28.484375 -33.125 C 29.753906 -32.007812 30.390625 -30.328125 30.390625 -28.078125 C 30.390625 -25.722656 29.382812 -23.050781 27.375 -20.0625 C 25.363281 -17.082031 22.5 -13.910156 18.78125 -10.546875 C 15.53125 -7.648438 12.59375 -5.285156 9.96875 -3.453125 C 7.34375 -1.617188 4.992188 -0.378906 2.921875 0.265625 Z M 2.921875 0.265625 "/></g></g><g style="fill:#6b705c;fill-opacity:1;"><g transform="translate(121.177452, 169.533205)"><path style="stroke:none" d="M 4.515625 1.15625 C 2.628906 1.15625 0.921875 0.550781 -0.609375 -0.65625 C -2.148438 -1.875 -2.921875 -3.488281 -2.921875 -5.5 C -2.921875 -9.6875 -0.351562 -14.46875 4.78125 -19.84375 C 10.039062 -25.28125 14.738281 -28 18.875 -28 C 20.226562 -28 21.332031 -27.628906 22.1875 -26.890625 C 23.050781 -26.148438 23.484375 -25.25 23.484375 -24.1875 C 23.484375 -20.875 20.851562 -17.625 15.59375 -14.4375 C 10.925781 -11.601562 7 -10.1875 3.8125 -10.1875 C 3.332031 -10.1875 2.914062 -10.242188 2.5625 -10.359375 C 1.675781 -8.765625 1.234375 -7.082031 1.234375 -5.3125 C 1.234375 -2.238281 2.679688 -0.703125 5.578125 -0.703125 C 8.535156 -0.703125 12.347656 -2.679688 17.015625 -6.640625 C 20.617188 -9.535156 23.6875 -12.609375 26.21875 -15.859375 C 26.75 -16.566406 27.222656 -16.921875 27.640625 -16.921875 C 27.992188 -16.921875 28.171875 -16.742188 28.171875 -16.390625 C 28.171875 -16.035156 27.9375 -15.535156 27.46875 -14.890625 C 25.8125 -12.703125 24.035156 -10.691406 22.140625 -8.859375 C 20.253906 -7.023438 18.21875 -5.34375 16.03125 -3.8125 C 11.488281 -0.5 7.648438 1.15625 4.515625 1.15625 Z M 5.046875 -12.140625 C 7.296875 -12.140625 10.222656 -13.257812 13.828125 -15.5 C 15.003906 -16.332031 16.164062 -17.265625 17.3125 -18.296875 C 18.46875 -19.328125 19.414062 -20.375 20.15625 -21.4375 C 20.894531 -22.5 21.265625 -23.445312 21.265625 -24.28125 C 21.265625 -25.039062 20.644531 -25.421875 19.40625 -25.421875 C 17.632812 -25.421875 15.148438 -24.09375 11.953125 -21.4375 C 10.421875 -20.132812 8.945312 -18.71875 7.53125 -17.1875 C 6.113281 -15.65625 4.898438 -14.03125 3.890625 -12.3125 C 4.242188 -12.195312 4.628906 -12.140625 5.046875 -12.140625 Z M 5.046875 -12.140625 "/></g></g><g style="fill:#6b705c;fill-opacity:1;"><g transform="translate(143.945572, 169.533205)"><path style="stroke:none" d="M 18.078125 0.4375 C 15.535156 0.4375 13.789062 -0.222656 12.84375 -1.546875 C 11.894531 -2.878906 11.421875 -4.664062 11.421875 -6.90625 C 11.421875 -9.382812 12.191406 -12.335938 13.734375 -15.765625 C 14.328125 -17.128906 14.945312 -18.351562 15.59375 -19.4375 C 16.238281 -20.53125 16.914062 -21.550781 17.625 -22.5 C 17.394531 -22.445312 17.191406 -22.421875 17.015625 -22.421875 C 16.835938 -22.421875 16.660156 -22.421875 16.484375 -22.421875 C 15.066406 -22.421875 13.882812 -23.421875 12.9375 -25.421875 L 6.375 -16.921875 C 2.894531 -12.367188 0.769531 -10.09375 0 -10.09375 C -0.289062 -10.09375 -0.4375 -10.210938 -0.4375 -10.453125 C -0.4375 -10.742188 -0.289062 -11.128906 0 -11.609375 C 0.175781 -11.960938 0.53125 -12.429688 1.0625 -13.015625 C 3.300781 -15.617188 5.363281 -18.191406 7.25 -20.734375 C 9.144531 -23.273438 10.710938 -25.753906 11.953125 -28.171875 C 13.316406 -33.304688 15.03125 -35.875 17.09375 -35.875 C 18.457031 -35.875 19.140625 -35.253906 19.140625 -34.015625 C 19.140625 -32.898438 18.398438 -31.425781 16.921875 -29.59375 C 15.503906 -27.757812 14.796875 -26.8125 14.796875 -26.75 C 14.796875 -25.507812 15.710938 -24.890625 17.546875 -24.890625 C 18.609375 -24.890625 19.785156 -25.273438 21.078125 -26.046875 L 23.390625 -27.46875 C 23.503906 -27.519531 23.679688 -27.546875 23.921875 -27.546875 C 24.628906 -27.546875 25.25 -27.25 25.78125 -26.65625 C 26.3125 -26.070312 26.488281 -25.546875 26.3125 -25.078125 L 20.203125 -17.359375 C 16.421875 -12.515625 14.53125 -8.617188 14.53125 -5.671875 C 14.53125 -3.015625 15.828125 -1.6875 18.421875 -1.6875 C 20.191406 -1.6875 22.097656 -2.21875 24.140625 -3.28125 C 26.179688 -4.34375 28.160156 -5.65625 30.078125 -7.21875 C 31.992188 -8.78125 33.601562 -10.300781 34.90625 -11.78125 L 37.03125 -14.265625 C 37.144531 -14.378906 37.289062 -14.523438 37.46875 -14.703125 C 37.644531 -14.878906 37.796875 -14.96875 37.921875 -14.96875 C 38.328125 -14.96875 38.53125 -14.765625 38.53125 -14.359375 C 38.53125 -14.234375 38.472656 -14.019531 38.359375 -13.71875 C 38.242188 -13.425781 38.035156 -13.101562 37.734375 -12.75 L 34.90625 -9.5625 C 33.550781 -8.03125 31.882812 -6.476562 29.90625 -4.90625 C 27.925781 -3.34375 25.882812 -2.0625 23.78125 -1.0625 C 21.6875 -0.0625 19.785156 0.4375 18.078125 0.4375 Z M 18.078125 0.4375 "/></g></g><g style="fill:#6b705c;fill-opacity:1;"><g transform="translate(178.850788, 169.533205)"><path style="stroke:none" d="M 6.734375 0.171875 C 5.015625 0.171875 3.414062 -0.253906 1.9375 -1.109375 C 0.46875 -1.960938 -0.265625 -3.394531 -0.265625 -5.40625 C -0.265625 -8.175781 0.722656 -11.476562 2.703125 -15.3125 C 4.679688 -19.15625 6.941406 -23.144531 9.484375 -27.28125 C 16.390625 -38.507812 21.289062 -44.125 24.1875 -44.125 C 24.78125 -44.125 25.382812 -43.898438 26 -43.453125 C 26.625 -43.015625 26.960938 -42.53125 27.015625 -42 L 20.8125 -33.671875 C 18.394531 -30.421875 16.210938 -27.421875 14.265625 -24.671875 C 12.316406 -21.921875 10.632812 -19.457031 9.21875 -17.28125 C 8.507812 -16.15625 7.710938 -14.882812 6.828125 -13.46875 C 5.941406 -12.050781 5.15625 -10.585938 4.46875 -9.078125 C 3.789062 -7.578125 3.453125 -6.054688 3.453125 -4.515625 C 3.453125 -3.804688 3.660156 -3.171875 4.078125 -2.609375 C 4.492188 -2.046875 5.234375 -1.765625 6.296875 -1.765625 C 8.179688 -1.765625 10.660156 -2.785156 13.734375 -4.828125 C 16.804688 -6.867188 19.847656 -9.6875 22.859375 -13.28125 C 23.148438 -13.644531 23.472656 -13.972656 23.828125 -14.265625 C 24.179688 -14.554688 24.476562 -14.703125 24.71875 -14.703125 C 25.007812 -14.703125 25.15625 -14.523438 25.15625 -14.171875 C 25.15625 -13.992188 24.960938 -13.65625 24.578125 -13.15625 C 24.203125 -12.65625 23.894531 -12.253906 23.65625 -11.953125 L 21.53125 -9.5625 C 20.34375 -8.269531 18.9375 -6.851562 17.3125 -5.3125 C 15.695312 -3.78125 13.988281 -2.484375 12.1875 -1.421875 C 10.382812 -0.359375 8.566406 0.171875 6.734375 0.171875 Z M 6.734375 0.171875 "/></g></g><g style="fill:#6b705c;fill-opacity:1;"><g transform="translate(200.378622, 169.533205)"><path style="stroke:none" d="M 2.03125 18.15625 C 0.144531 18.15625 -1.503906 17.359375 -2.921875 15.765625 C -4.335938 14.109375 -5.019531 12.28125 -4.96875 10.28125 C -4.25 11.164062 -3.300781 12.195312 -2.125 13.375 C -0.59375 14.851562 0.910156 15.59375 2.390625 15.59375 C 5.753906 15.59375 9.382812 12.90625 13.28125 7.53125 C 14.644531 5.644531 16.050781 3.445312 17.5 0.9375 C 18.945312 -1.570312 20.316406 -4.363281 21.609375 -7.4375 L 24.984375 -15.59375 L 11.953125 -5.40625 C 7.941406 -2.269531 4.722656 -0.703125 2.296875 -0.703125 C 1.003906 -0.703125 -0.0234375 -1.175781 -0.796875 -2.125 C -1.566406 -3.070312 -1.953125 -4.046875 -1.953125 -5.046875 C -1.953125 -7.585938 0.234375 -11.753906 4.609375 -17.546875 C 8.972656 -23.390625 12.25 -26.3125 14.4375 -26.3125 C 16.269531 -26.3125 17.1875 -25.632812 17.1875 -24.28125 C 17.1875 -23.75 14.554688 -20.675781 9.296875 -15.0625 C 4.097656 -9.507812 1.5 -5.757812 1.5 -3.8125 C 1.5 -3.039062 2.003906 -2.65625 3.015625 -2.65625 C 4.898438 -2.65625 9.003906 -5.109375 15.328125 -10.015625 C 17.921875 -12.078125 20.222656 -13.960938 22.234375 -15.671875 C 24.242188 -17.390625 25.925781 -18.925781 27.28125 -20.28125 C 27.757812 -20.875 28.234375 -21.453125 28.703125 -22.015625 C 29.171875 -22.578125 29.613281 -23.15625 30.03125 -23.75 C 31.15625 -25.039062 32.28125 -25.6875 33.40625 -25.6875 C 35 -25.6875 35.796875 -25.039062 35.796875 -23.75 C 35.796875 -23.507812 34.554688 -21.554688 32.078125 -17.890625 C 30.773438 -15.890625 29.738281 -14.34375 28.96875 -13.25 C 28.195312 -12.15625 27.753906 -11.457031 27.640625 -11.15625 C 25.804688 -7.613281 23 -2.445312 19.21875 4.34375 C 13.488281 13.550781 7.757812 18.15625 2.03125 18.15625 Z M 2.03125 18.15625 "/></g></g><g style="fill:#6b705c;fill-opacity:1;"><g transform="translate(95.572159, 238.716789)"><path style="stroke:none" d="M 13.5625 10.28125 C 4.457031 9.507812 -0.09375 4.84375 -0.09375 -3.71875 C -0.09375 -8.800781 1.503906 -14.179688 4.703125 -19.859375 C 6.585938 -23.285156 8.960938 -26.625 11.828125 -29.875 C 14.691406 -33.125 17.820312 -36.0625 21.21875 -38.6875 C 24.625 -41.320312 28.113281 -43.40625 31.6875 -44.9375 C 35.257812 -46.476562 38.703125 -47.25 42.015625 -47.25 C 47.867188 -47.25 50.796875 -45.09375 50.796875 -40.78125 C 50.796875 -37.882812 49.90625 -34.660156 48.125 -31.109375 C 46.351562 -27.566406 44.550781 -25.320312 42.71875 -24.375 C 42.539062 -24.3125 42.335938 -24.28125 42.109375 -24.28125 C 41.929688 -24.28125 41.84375 -24.34375 41.84375 -24.46875 L 44.765625 -29.25 C 46.773438 -32.5625 47.78125 -35.457031 47.78125 -37.9375 C 47.78125 -39.707031 47.304688 -41.390625 46.359375 -42.984375 C 45.410156 -44.585938 43.726562 -45.390625 41.3125 -45.390625 C 38.351562 -45.390625 35.320312 -44.5625 32.21875 -42.90625 C 29.113281 -41.25 26.113281 -39.0625 23.21875 -36.34375 C 20.320312 -33.625 17.691406 -30.625 15.328125 -27.34375 C 12.972656 -24.0625 11.082031 -20.828125 9.65625 -17.640625 C 6.644531 -10.847656 5.140625 -5.351562 5.140625 -1.15625 C 5.140625 5.164062 8.359375 8.328125 14.796875 8.328125 C 20.941406 8.328125 29.273438 4.367188 39.796875 -3.546875 C 42.222656 -5.378906 45.34375 -7.945312 49.15625 -11.25 C 52.96875 -14.5625 57.441406 -18.582031 62.578125 -23.3125 C 61.867188 -23.25 60.984375 -23.171875 59.921875 -23.078125 C 58.859375 -22.992188 57.617188 -22.835938 56.203125 -22.609375 C 55.609375 -22.484375 55.046875 -22.375 54.515625 -22.28125 C 53.984375 -22.195312 53.476562 -22.15625 53 -22.15625 C 51.820312 -22.28125 51.320312 -22.578125 51.5 -23.046875 C 51.738281 -25.234375 52.863281 -26.328125 54.875 -26.328125 C 56.695312 -26.085938 58.421875 -25.90625 60.046875 -25.78125 C 61.671875 -25.664062 63.222656 -25.609375 64.703125 -25.609375 C 67.015625 -27.742188 70.070312 -30.71875 73.875 -34.53125 C 77.6875 -38.34375 82.222656 -43.023438 87.484375 -48.578125 C 94.285156 -55.722656 98.421875 -59.296875 99.890625 -59.296875 C 100.546875 -59.296875 100.875 -58.707031 100.875 -57.53125 C 100.875 -57.050781 100.8125 -56.457031 100.6875 -55.75 C 100.570312 -55.039062 100.394531 -54.210938 100.15625 -53.265625 C 99.570312 -51.023438 98.953125 -49.671875 98.296875 -49.203125 C 96.460938 -47.898438 94.941406 -46.226562 93.734375 -44.1875 C 92.523438 -42.144531 91.300781 -39.882812 90.0625 -37.40625 C 88.820312 -34.863281 87.679688 -32.601562 86.640625 -30.625 C 85.609375 -28.644531 84.679688 -26.882812 83.859375 -25.34375 L 92.453125 -25.53125 C 94.578125 -25.53125 95.640625 -25.378906 95.640625 -25.078125 C 95.640625 -25.023438 95.582031 -24.9375 95.46875 -24.8125 C 94.457031 -24.164062 90.203125 -23.578125 82.703125 -23.046875 C 77.203125 -12.347656 74.453125 -5.019531 74.453125 -1.0625 C 74.453125 1.65625 75.3125 3.015625 77.03125 3.015625 C 77.675781 3.015625 78.503906 2.597656 79.515625 1.765625 C 80.453125 1.003906 81.039062 0.625 81.28125 0.625 C 81.28125 0.5 81.304688 0.46875 81.359375 0.53125 C 81.421875 0.59375 81.394531 0.625 81.28125 0.625 C 80.988281 1.6875 80.117188 2.644531 78.671875 3.5 C 77.222656 4.351562 75.703125 4.78125 74.109375 4.78125 C 72.628906 4.78125 71.648438 4.304688 71.171875 3.359375 C 70.703125 2.421875 70.46875 1.125 70.46875 -0.53125 C 70.46875 -6.5 72.742188 -14.09375 77.296875 -23.3125 L 66.65625 -23.046875 C 58.738281 -15.304688 50.789062 -8.507812 42.8125 -2.65625 C 30.101562 6.5625 20.351562 10.875 13.5625 10.28125 Z M 78.09375 -25.609375 C 78.800781 -26.972656 80.21875 -29.441406 82.34375 -33.015625 C 84.46875 -36.585938 87.335938 -41.242188 90.953125 -46.984375 L 68.25 -25.703125 Z M 78.09375 -25.609375 "/></g></g><g style="fill:#6b705c;fill-opacity:1;"><g transform="translate(185.988834, 238.716789)"><path style="stroke:none" d="M 10.1875 0.171875 C 7.414062 0.171875 5.363281 -0.738281 4.03125 -2.5625 C 2.695312 -4.394531 1.617188 -6.9375 0.796875 -10.1875 C -0.265625 -9.125 -1.003906 -8.59375 -1.421875 -8.59375 C -1.710938 -8.59375 -1.859375 -8.832031 -1.859375 -9.3125 C -1.859375 -9.664062 -1.710938 -9.988281 -1.421875 -10.28125 C -1.421875 -10.28125 -0.664062 -11.195312 0.84375 -13.03125 C 2.351562 -14.863281 4.910156 -17.429688 8.515625 -20.734375 L 19.671875 -31.203125 C 21.210938 -32.679688 22.441406 -33.800781 23.359375 -34.5625 C 24.273438 -35.332031 24.9375 -35.71875 25.34375 -35.71875 C 27.238281 -35.71875 28.1875 -35.007812 28.1875 -33.59375 C 28.1875 -32.882812 27.800781 -32.054688 27.03125 -31.109375 C 26.445312 -30.398438 26.019531 -29.851562 25.75 -29.46875 C 25.476562 -29.082031 25.316406 -28.863281 25.265625 -28.8125 C 24.203125 -26.976562 23.226562 -23.695312 22.34375 -18.96875 C 21.6875 -15.476562 21.117188 -12.609375 20.640625 -10.359375 C 20.171875 -8.117188 19.789062 -6.5 19.5 -5.5 C 21.976562 -5.550781 24.429688 -6.316406 26.859375 -7.796875 C 29.285156 -9.273438 31.882812 -11.695312 34.65625 -15.0625 C 34.769531 -15.1875 34.945312 -15.363281 35.1875 -15.59375 C 35.425781 -15.832031 35.664062 -15.953125 35.90625 -15.953125 C 36.257812 -15.953125 36.4375 -15.804688 36.4375 -15.515625 C 36.4375 -15.210938 36.347656 -14.914062 36.171875 -14.625 C 35.992188 -14.332031 35.816406 -14.066406 35.640625 -13.828125 C 33.804688 -11.640625 32.085938 -9.847656 30.484375 -8.453125 C 28.890625 -7.066406 27.207031 -5.972656 25.4375 -5.171875 C 23.664062 -4.378906 21.566406 -3.71875 19.140625 -3.1875 L 16.3125 -1.328125 C 15.539062 -0.796875 14.625 -0.410156 13.5625 -0.171875 C 12.5 0.0546875 11.375 0.171875 10.1875 0.171875 Z M 11.25 -4.34375 C 12.613281 -4.34375 13.738281 -4.664062 14.625 -5.3125 C 15.269531 -5.664062 15.90625 -6.65625 16.53125 -8.28125 C 17.15625 -9.90625 17.757812 -11.929688 18.34375 -14.359375 C 18.820312 -16.429688 19.191406 -18.457031 19.453125 -20.4375 C 19.722656 -22.414062 19.972656 -24.320312 20.203125 -26.15625 L 20.5625 -29.15625 C 19.207031 -28.15625 17.492188 -26.707031 15.421875 -24.8125 C 13.359375 -22.925781 11.320312 -20.945312 9.3125 -18.875 C 7.300781 -16.8125 6 -15.289062 5.40625 -14.3125 C 4.8125 -13.34375 4.488281 -12.617188 4.4375 -12.140625 C 4.195312 -9.773438 4.769531 -7.882812 6.15625 -6.46875 C 7.550781 -5.050781 9.25 -4.34375 11.25 -4.34375 Z M 11.25 -4.34375 "/></g></g><g style="fill:#6b705c;fill-opacity:1;"><g transform="translate(217.811953, 238.716789)"><path style="stroke:none" d="M 10.1875 0.171875 C 7.414062 0.171875 5.363281 -0.738281 4.03125 -2.5625 C 2.695312 -4.394531 1.617188 -6.9375 0.796875 -10.1875 C -0.265625 -9.125 -1.003906 -8.59375 -1.421875 -8.59375 C -1.710938 -8.59375 -1.859375 -8.832031 -1.859375 -9.3125 C -1.859375 -9.664062 -1.710938 -9.988281 -1.421875 -10.28125 C -1.421875 -10.28125 -0.664062 -11.195312 0.84375 -13.03125 C 2.351562 -14.863281 4.910156 -17.429688 8.515625 -20.734375 L 19.671875 -31.203125 C 21.210938 -32.679688 22.441406 -33.800781 23.359375 -34.5625 C 24.273438 -35.332031 24.9375 -35.71875 25.34375 -35.71875 C 27.238281 -35.71875 28.1875 -35.007812 28.1875 -33.59375 C 28.1875 -32.882812 27.800781 -32.054688 27.03125 -31.109375 C 26.445312 -30.398438 26.019531 -29.851562 25.75 -29.46875 C 25.476562 -29.082031 25.316406 -28.863281 25.265625 -28.8125 C 24.203125 -26.976562 23.226562 -23.695312 22.34375 -18.96875 C 21.6875 -15.476562 21.117188 -12.609375 20.640625 -10.359375 C 20.171875 -8.117188 19.789062 -6.5 19.5 -5.5 C 21.976562 -5.550781 24.429688 -6.316406 26.859375 -7.796875 C 29.285156 -9.273438 31.882812 -11.695312 34.65625 -15.0625 C 34.769531 -15.1875 34.945312 -15.363281 35.1875 -15.59375 C 35.425781 -15.832031 35.664062 -15.953125 35.90625 -15.953125 C 36.257812 -15.953125 36.4375 -15.804688 36.4375 -15.515625 C 36.4375 -15.210938 36.347656 -14.914062 36.171875 -14.625 C 35.992188 -14.332031 35.816406 -14.066406 35.640625 -13.828125 C 33.804688 -11.640625 32.085938 -9.847656 30.484375 -8.453125 C 28.890625 -7.066406 27.207031 -5.972656 25.4375 -5.171875 C 23.664062 -4.378906 21.566406 -3.71875 19.140625 -3.1875 L 16.3125 -1.328125 C 15.539062 -0.796875 14.625 -0.410156 13.5625 -0.171875 C 12.5 0.0546875 11.375 0.171875 10.1875 0.171875 Z M 11.25 -4.34375 C 12.613281 -4.34375 13.738281 -4.664062 14.625 -5.3125 C 15.269531 -5.664062 15.90625 -6.65625 16.53125 -8.28125 C 17.15625 -9.90625 17.757812 -11.929688 18.34375 -14.359375 C 18.820312 -16.429688 19.191406 -18.457031 19.453125 -20.4375 C 19.722656 -22.414062 19.972656 -24.320312 20.203125 -26.15625 L 20.5625 -29.15625 C 19.207031 -28.15625 17.492188 -26.707031 15.421875 -24.8125 C 13.359375 -22.925781 11.320312 -20.945312 9.3125 -18.875 C 7.300781 -16.8125 6 -15.289062 5.40625 -14.3125 C 4.8125 -13.34375 4.488281 -12.617188 4.4375 -12.140625 C 4.195312 -9.773438 4.769531 -7.882812 6.15625 -6.46875 C 7.550781 -5.050781 9.25 -4.34375 11.25 -4.34375 Z M 11.25 -4.34375 "/></g></g><g style="fill:#6b705c;fill-opacity:1;"><g transform="translate(249.635071, 238.716789)"><path style="stroke:none" d="M 19.59375 -30.5 C 18.582031 -30.5 17.707031 -30.820312 16.96875 -31.46875 C 16.226562 -32.113281 15.859375 -32.851562 15.859375 -33.6875 C 15.859375 -35.34375 16.984375 -36.171875 19.234375 -36.171875 C 20.054688 -36.171875 20.878906 -35.890625 21.703125 -35.328125 C 22.535156 -34.765625 22.953125 -34.066406 22.953125 -33.234375 C 22.953125 -32.523438 22.566406 -31.890625 21.796875 -31.328125 C 21.035156 -30.773438 20.300781 -30.5 19.59375 -30.5 Z M 3.1875 0.96875 C 1.882812 0.96875 0.804688 0.539062 -0.046875 -0.3125 C -0.898438 -1.164062 -1.328125 -2.6875 -1.328125 -4.875 C -1.328125 -6.113281 -1.046875 -7.546875 -0.484375 -9.171875 C 0.078125 -10.796875 0.785156 -12.4375 1.640625 -14.09375 C 2.492188 -15.75 3.335938 -17.226562 4.171875 -18.53125 C 7.472656 -23.90625 10.191406 -26.625 12.328125 -26.6875 C 12.859375 -26.6875 13.503906 -26.460938 14.265625 -26.015625 C 15.035156 -25.566406 15.421875 -25.078125 15.421875 -24.546875 C 15.421875 -24.546875 13.175781 -21.648438 8.6875 -15.859375 C 4.25 -10.128906 2.03125 -6.054688 2.03125 -3.640625 C 2.03125 -1.742188 2.769531 -0.796875 4.25 -0.796875 C 5.195312 -0.796875 6.421875 -1.191406 7.921875 -1.984375 C 9.429688 -2.785156 11.015625 -3.804688 12.671875 -5.046875 C 14.328125 -6.285156 15.90625 -7.613281 17.40625 -9.03125 C 18.914062 -10.457031 20.144531 -11.757812 21.09375 -12.9375 C 21.6875 -13.707031 22.203125 -14.238281 22.640625 -14.53125 C 23.085938 -14.832031 23.367188 -14.984375 23.484375 -14.984375 C 23.722656 -14.984375 23.84375 -14.804688 23.84375 -14.453125 C 23.84375 -14.148438 23.503906 -13.554688 22.828125 -12.671875 C 22.148438 -11.785156 21.21875 -10.753906 20.03125 -9.578125 C 18.613281 -8.160156 17.046875 -6.625 15.328125 -4.96875 C 13.617188 -3.3125 11.757812 -1.90625 9.75 -0.75 C 7.738281 0.394531 5.550781 0.96875 3.1875 0.96875 Z M 3.1875 0.96875 "/></g></g><g style="fill:#6b705c;fill-opacity:1;"><g transform="translate(269.668577, 238.716789)"><path style="stroke:none" d="M 10.1875 0.171875 C 7.414062 0.171875 5.363281 -0.738281 4.03125 -2.5625 C 2.695312 -4.394531 1.617188 -6.9375 0.796875 -10.1875 C -0.265625 -9.125 -1.003906 -8.59375 -1.421875 -8.59375 C -1.710938 -8.59375 -1.859375 -8.832031 -1.859375 -9.3125 C -1.859375 -9.664062 -1.710938 -9.988281 -1.421875 -10.28125 C -1.421875 -10.28125 -0.664062 -11.195312 0.84375 -13.03125 C 2.351562 -14.863281 4.910156 -17.429688 8.515625 -20.734375 L 19.671875 -31.203125 C 21.210938 -32.679688 22.441406 -33.800781 23.359375 -34.5625 C 24.273438 -35.332031 24.9375 -35.71875 25.34375 -35.71875 C 27.238281 -35.71875 28.1875 -35.007812 28.1875 -33.59375 C 28.1875 -32.882812 27.800781 -32.054688 27.03125 -31.109375 C 26.445312 -30.398438 26.019531 -29.851562 25.75 -29.46875 C 25.476562 -29.082031 25.316406 -28.863281 25.265625 -28.8125 C 24.203125 -26.976562 23.226562 -23.695312 22.34375 -18.96875 C 21.6875 -15.476562 21.117188 -12.609375 20.640625 -10.359375 C 20.171875 -8.117188 19.789062 -6.5 19.5 -5.5 C 21.976562 -5.550781 24.429688 -6.316406 26.859375 -7.796875 C 29.285156 -9.273438 31.882812 -11.695312 34.65625 -15.0625 C 34.769531 -15.1875 34.945312 -15.363281 35.1875 -15.59375 C 35.425781 -15.832031 35.664062 -15.953125 35.90625 -15.953125 C 36.257812 -15.953125 36.4375 -15.804688 36.4375 -15.515625 C 36.4375 -15.210938 36.347656 -14.914062 36.171875 -14.625 C 35.992188 -14.332031 35.816406 -14.066406 35.640625 -13.828125 C 33.804688 -11.640625 32.085938 -9.847656 30.484375 -8.453125 C 28.890625 -7.066406 27.207031 -5.972656 25.4375 -5.171875 C 23.664062 -4.378906 21.566406 -3.71875 19.140625 -3.1875 L 16.3125 -1.328125 C 15.539062 -0.796875 14.625 -0.410156 13.5625 -0.171875 C 12.5 0.0546875 11.375 0.171875 10.1875 0.171875 Z M 11.25 -4.34375 C 12.613281 -4.34375 13.738281 -4.664062 14.625 -5.3125 C 15.269531 -5.664062 15.90625 -6.65625 16.53125 -8.28125 C 17.15625 -9.90625 17.757812 -11.929688 18.34375 -14.359375 C 18.820312 -16.429688 19.191406 -18.457031 19.453125 -20.4375 C 19.722656 -22.414062 19.972656 -24.320312 20.203125 -26.15625 L 20.5625 -29.15625 C 19.207031 -28.15625 17.492188 -26.707031 15.421875 -24.8125 C 13.359375 -22.925781 11.320312 -20.945312 9.3125 -18.875 C 7.300781 -16.8125 6 -15.289062 5.40625 -14.3125 C 4.8125 -13.34375 4.488281 -12.617188 4.4375 -12.140625 C 4.195312 -9.773438 4.769531 -7.882812 6.15625 -6.46875 C 7.550781 -5.050781 9.25 -4.34375 11.25 -4.34375 Z M 11.25 -4.34375 "/></g></g><g style="fill:#6b705c;fill-opacity:1;"><g transform="translate(301.491695, 238.716789)"><path style="stroke:none" d="M 5.5 0.53125 C 3.601562 0.53125 2.109375 0.0703125 1.015625 -0.84375 C -0.078125 -1.757812 -0.625 -3.398438 -0.625 -5.765625 C -0.625 -7.117188 -0.210938 -8.84375 0.609375 -10.9375 C 1.441406 -13.039062 2.476562 -15.300781 3.71875 -17.71875 C 4.957031 -20.144531 6.203125 -22.539062 7.453125 -24.90625 C 6.679688 -24.726562 6 -24.640625 5.40625 -24.640625 C 3.632812 -24.640625 2.75 -25.320312 2.75 -26.6875 C 2.75 -27.332031 3 -27.832031 3.5 -28.1875 C 4 -28.539062 4.457031 -28.75 4.875 -28.8125 C 4.875 -28.8125 4.945312 -28.8125 5.09375 -28.8125 C 5.238281 -28.8125 5.429688 -28.835938 5.671875 -28.890625 L 10.8125 -28.890625 C 11.875 -30.253906 12.96875 -31.703125 14.09375 -33.234375 C 15.6875 -35.242188 16.957031 -36.425781 17.90625 -36.78125 L 18.171875 -36.78125 C 18.585938 -36.78125 19.175781 -36.578125 19.9375 -36.171875 C 20.882812 -35.640625 21.359375 -35.101562 21.359375 -34.5625 C 21.359375 -33.800781 19.941406 -31.820312 17.109375 -28.625 C 17.640625 -28.570312 18.40625 -28.546875 19.40625 -28.546875 C 20.414062 -28.546875 21.660156 -28.546875 23.140625 -28.546875 C 23.847656 -28.546875 24.863281 -28.546875 26.1875 -28.546875 C 27.519531 -28.546875 28.910156 -28.554688 30.359375 -28.578125 C 31.804688 -28.609375 33.0625 -28.640625 34.125 -28.671875 C 35.1875 -28.703125 35.78125 -28.71875 35.90625 -28.71875 C 36.082031 -28.65625 36.171875 -28.566406 36.171875 -28.453125 C 36.171875 -27.921875 32.679688 -27.210938 25.703125 -26.328125 C 21.742188 -25.796875 18.710938 -25.378906 16.609375 -25.078125 C 14.515625 -24.785156 13.378906 -24.609375 13.203125 -24.546875 C 12.378906 -23.835938 11.375 -22.625 10.1875 -20.90625 C 9.007812 -19.195312 7.828125 -17.28125 6.640625 -15.15625 C 5.460938 -13.03125 4.472656 -11.003906 3.671875 -9.078125 C 2.878906 -7.160156 2.484375 -5.671875 2.484375 -4.609375 C 2.484375 -3.660156 2.835938 -2.875 3.546875 -2.25 C 4.253906 -1.632812 5.40625 -1.328125 7 -1.328125 C 8.0625 -1.328125 9.332031 -1.5625 10.8125 -2.03125 C 12.289062 -2.507812 13.691406 -3.054688 15.015625 -3.671875 C 16.347656 -4.296875 17.3125 -4.785156 17.90625 -5.140625 C 19.4375 -6.085938 21.132812 -7.34375 23 -8.90625 C 24.863281 -10.46875 26.710938 -12.253906 28.546875 -14.265625 C 29.367188 -15.097656 29.925781 -15.515625 30.21875 -15.515625 C 30.40625 -15.515625 30.5 -15.394531 30.5 -15.15625 C 30.5 -14.6875 30.050781 -13.921875 29.15625 -12.859375 C 27.738281 -11.140625 26.160156 -9.492188 24.421875 -7.921875 C 22.679688 -6.359375 20.742188 -4.929688 18.609375 -3.640625 C 16.191406 -2.160156 13.875 -1.09375 11.65625 -0.4375 C 9.4375 0.207031 7.382812 0.53125 5.5 0.53125 Z M 5.5 0.53125 "/></g></g><g clip-rule="nonzero" clip-path="url(#abf720087c)"><path style=" stroke:none;fill-rule:nonzero;fill:#6b705c;fill-opacity:1;" d="M 287.859375 112.589844 C 286.886719 148.164062 286.101562 148.953125 250.523438 149.925781 C 286.101562 150.898438 286.886719 151.683594 287.859375 187.261719 C 288.832031 151.683594 289.621094 150.898438 325.195312 149.925781 C 289.621094 148.953125 288.832031 148.164062 287.859375 112.589844 "/></g><g clip-rule="nonzero" clip-path="url(#771975a204)"><path style=" stroke:none;fill-rule:nonzero;fill:#6b705c;fill-opacity:1;" d="M 254.332031 156.230469 C 254.050781 166.488281 253.824219 166.714844 243.5625 166.996094 C 253.824219 167.277344 254.050781 167.503906 254.332031 177.765625 C 254.613281 167.503906 254.839844 167.277344 265.097656 166.996094 C 254.839844 166.714844 254.613281 166.488281 254.332031 156.230469 "/></g><g clip-rule="nonzero" clip-path="url(#96ee75edae)"><path style=" stroke:none;fill-rule:nonzero;fill:#6b705c;fill-opacity:1;" d="M 313.460938 139.082031 C 313.886719 123.496094 314.234375 123.148438 329.820312 122.722656 C 314.234375 122.296875 313.886719 121.953125 313.460938 106.367188 C 313.035156 121.953125 312.691406 122.296875 297.105469 122.722656 C 312.691406 123.148438 313.035156 123.496094 313.460938 139.082031 "/></g></g></svg>