<svg xmlns="http://www.w3.org/2000/svg" xmlns:xlink="http://www.w3.org/1999/xlink" width="500" zoomAndPan="magnify" viewBox="0 0 375 374.999991" height="500" preserveAspectRatio="xMidYMid meet" version="1.2"><defs><clipPath id="1103647fdc"><path d="M 152.660156 133.789062 L 208.910156 133.789062 L 208.910156 193 L 152.660156 193 Z M 152.660156 133.789062 "/></clipPath></defs><g id="cef9b5cdc1"><g clip-rule="nonzero" clip-path="url(#1103647fdc)"><path style=" stroke:none;fill-rule:nonzero;fill:#6b705c;fill-opacity:1;" d="M 177.707031 192.691406 C 177.132812 168.832031 176.667969 168.371094 152.8125 167.796875 C 176.667969 167.222656 177.132812 166.757812 177.707031 142.902344 C 178.277344 166.757812 178.742188 167.222656 202.597656 167.796875 C 178.742188 168.371094 178.277344 168.832031 177.707031 192.691406 Z M 208.910156 147.640625 C 197.417969 147.363281 197.191406 147.140625 196.917969 135.648438 C 196.640625 147.140625 196.417969 147.363281 184.921875 147.640625 C 196.417969 147.917969 196.640625 148.140625 196.917969 159.632812 C 197.191406 148.140625 197.417969 147.917969 208.910156 147.640625 Z M 171.25 141.394531 C 163.96875 141.21875 163.824219 141.078125 163.652344 133.792969 C 163.476562 141.078125 163.332031 141.21875 156.050781 141.394531 C 163.332031 141.570312 163.476562 141.710938 163.652344 148.996094 C 163.824219 141.710938 163.96875 141.570312 171.25 141.394531 Z M 171.25 141.394531 "/></g><g style="fill:#6b705c;fill-opacity:1;"><g transform="translate(36.618773, 198.65787)"><path style="stroke:none" d="M 15.21875 4.75 C 12.5625 4.75 10.09375 4.410156 7.8125 3.734375 C 5.539062 3.066406 3.695312 2.039062 2.28125 0.65625 C 0.875 -0.726562 0.171875 -2.472656 0.171875 -4.578125 C 0.171875 -6.203125 0.6875 -7.828125 1.71875 -9.453125 C 5.375 -15.242188 11.597656 -19.546875 20.390625 -22.359375 C 19.085938 -23.867188 18.4375 -25.570312 18.4375 -27.46875 C 18.4375 -29.019531 18.851562 -30.347656 19.6875 -31.453125 C 21.3125 -33.679688 23.769531 -35.523438 27.0625 -36.984375 C 28.925781 -37.773438 30.816406 -38.390625 32.734375 -38.828125 C 34.660156 -39.265625 36.613281 -39.484375 38.59375 -39.484375 C 41.050781 -39.484375 42.921875 -39.085938 44.203125 -38.296875 C 45.492188 -37.503906 46.140625 -36.394531 46.140625 -34.96875 C 46.140625 -33.976562 45.875 -33.078125 45.34375 -32.265625 C 44.8125 -31.453125 44.144531 -30.796875 43.34375 -30.296875 C 42.550781 -29.804688 41.742188 -29.5625 40.921875 -29.5625 C 39.691406 -29.5625 39.078125 -29.859375 39.078125 -30.453125 C 39.078125 -30.804688 39.332031 -30.984375 39.84375 -30.984375 C 40 -30.984375 40.207031 -30.953125 40.46875 -30.890625 C 40.726562 -30.835938 40.914062 -30.8125 41.03125 -30.8125 C 41.863281 -30.8125 42.597656 -31.242188 43.234375 -32.109375 C 43.867188 -32.984375 44.1875 -33.859375 44.1875 -34.734375 C 44.1875 -35.992188 43.582031 -36.898438 42.375 -37.453125 C 41.164062 -38.015625 39.804688 -38.296875 38.296875 -38.296875 C 34.523438 -38.296875 30.835938 -37.085938 27.234375 -34.671875 C 23.429688 -32.171875 21.53125 -29.351562 21.53125 -26.21875 C 21.53125 -25.070312 21.925781 -24.003906 22.71875 -23.015625 C 24.101562 -23.453125 25.398438 -23.757812 26.609375 -23.9375 C 27.816406 -24.113281 28.976562 -24.203125 30.09375 -24.203125 C 33.894531 -24.203125 35.796875 -23.46875 35.796875 -22 C 35.796875 -21.332031 35.519531 -20.75 34.96875 -20.25 C 34.414062 -19.75 33.710938 -19.367188 32.859375 -19.109375 C 32.003906 -18.859375 31.140625 -18.734375 30.265625 -18.734375 C 29.359375 -18.734375 28.347656 -18.851562 27.234375 -19.09375 C 26.128906 -19.332031 25.0625 -19.648438 24.03125 -20.046875 C 23 -20.441406 22.125 -20.894531 21.40625 -21.40625 C 17.675781 -20.332031 14.375 -18.675781 11.5 -16.4375 C 8.632812 -14.195312 6.503906 -11.691406 5.109375 -8.921875 C 4.359375 -7.410156 3.984375 -5.941406 3.984375 -4.515625 C 3.984375 -2.773438 4.476562 -1.347656 5.46875 -0.234375 C 6.457031 0.867188 7.773438 1.675781 9.421875 2.1875 C 11.066406 2.707031 12.878906 2.96875 14.859375 2.96875 C 18.148438 2.96875 21.421875 2.441406 24.671875 1.390625 C 27.929688 0.347656 30.707031 -1.203125 33 -3.265625 C 36.132812 -6.046875 37.703125 -8.960938 37.703125 -12.015625 C 37.703125 -14.429688 36.53125 -15.640625 34.1875 -15.640625 C 32.957031 -15.640625 31.585938 -15.332031 30.078125 -14.71875 C 28.578125 -14.101562 27.160156 -13.28125 25.828125 -12.25 C 24.503906 -11.21875 23.40625 -10.085938 22.53125 -8.859375 C 21.664062 -7.628906 21.234375 -6.378906 21.234375 -5.109375 C 21.234375 -3.847656 21.785156 -3.078125 22.890625 -2.796875 C 23.285156 -2.640625 23.484375 -2.441406 23.484375 -2.203125 C 23.484375 -1.878906 23.1875 -1.71875 22.59375 -1.71875 C 20.5 -1.71875 19.453125 -2.890625 19.453125 -5.234375 C 19.453125 -6.773438 19.90625 -8.238281 20.8125 -9.625 C 21.726562 -11.019531 22.90625 -12.25 24.34375 -13.3125 C 25.789062 -14.382812 27.367188 -15.226562 29.078125 -15.84375 C 30.785156 -16.457031 32.429688 -16.765625 34.015625 -16.765625 C 35.878906 -16.765625 37.328125 -16.359375 38.359375 -15.546875 C 39.390625 -14.734375 39.90625 -13.414062 39.90625 -11.59375 C 39.90625 -7.90625 37.863281 -4.4375 33.78125 -1.1875 C 31.195312 0.914062 28.335938 2.429688 25.203125 3.359375 C 22.078125 4.285156 18.75 4.75 15.21875 4.75 Z M 29.734375 -20.046875 C 31.878906 -20.046875 32.953125 -20.660156 32.953125 -21.890625 C 32.953125 -22.441406 31.878906 -22.71875 29.734375 -22.71875 C 28.785156 -22.71875 27.804688 -22.65625 26.796875 -22.53125 C 25.785156 -22.414062 24.765625 -22.257812 23.734375 -22.0625 C 25.429688 -20.71875 27.429688 -20.046875 29.734375 -20.046875 Z M 29.734375 -20.046875 "/></g></g><g style="fill:#6b705c;fill-opacity:1;"><g transform="translate(77.710984, 198.65787)"><path style="stroke:none" d="M 1.96875 0.171875 C 1.726562 0.171875 1.390625 0.0664062 0.953125 -0.140625 C 0.515625 -0.359375 0.117188 -0.617188 -0.234375 -0.921875 C -0.585938 -1.222656 -0.785156 -1.488281 -0.828125 -1.71875 C -0.867188 -2.039062 -0.660156 -2.941406 -0.203125 -4.421875 C 0.242188 -5.910156 0.96875 -7.945312 1.96875 -10.53125 C 2.957031 -13.144531 3.785156 -15.164062 4.453125 -16.59375 C 5.128906 -18.019531 5.628906 -18.875 5.953125 -19.15625 C 6.109375 -19.3125 6.320312 -19.390625 6.59375 -19.390625 C 7.03125 -19.390625 7.445312 -19.195312 7.84375 -18.8125 C 8.238281 -18.4375 8.457031 -17.992188 8.5 -17.484375 C 8.5 -17.441406 7.507812 -15.101562 5.53125 -10.46875 C 3.582031 -5.988281 2.671875 -3.3125 2.796875 -2.4375 C 4.535156 -2.988281 7.445312 -4.953125 11.53125 -8.328125 C 13.988281 -10.390625 15.765625 -12.257812 16.859375 -13.9375 C 17.953125 -15.625 18.5 -17.144531 18.5 -18.5 C 18.5 -19.289062 18.304688 -20.007812 17.921875 -20.65625 C 17.546875 -21.3125 16.863281 -21.859375 15.875 -22.296875 C 15.601562 -22.421875 15.46875 -22.601562 15.46875 -22.84375 C 15.46875 -23.195312 15.679688 -23.375 16.109375 -23.375 C 17.265625 -23.375 18.265625 -22.992188 19.109375 -22.234375 C 19.960938 -21.484375 20.390625 -20.359375 20.390625 -18.859375 C 20.390625 -17.265625 19.71875 -15.46875 18.375 -13.46875 C 17.03125 -11.46875 15.109375 -9.335938 12.609375 -7.078125 C 10.429688 -5.128906 8.457031 -3.539062 6.6875 -2.3125 C 4.925781 -1.082031 3.351562 -0.253906 1.96875 0.171875 Z M 1.96875 0.171875 "/></g></g><g style="fill:#6b705c;fill-opacity:1;"><g transform="translate(95.610779, 198.65787)"><path style="stroke:none" d="M 3.03125 0.765625 C 1.757812 0.765625 0.609375 0.359375 -0.421875 -0.453125 C -1.453125 -1.265625 -1.96875 -2.34375 -1.96875 -3.6875 C -1.96875 -6.5 -0.238281 -9.710938 3.21875 -13.328125 C 6.738281 -16.972656 9.890625 -18.796875 12.671875 -18.796875 C 13.578125 -18.796875 14.316406 -18.546875 14.890625 -18.046875 C 15.472656 -17.554688 15.765625 -16.953125 15.765625 -16.234375 C 15.765625 -14.015625 14 -11.832031 10.46875 -9.6875 C 7.332031 -7.789062 4.695312 -6.84375 2.5625 -6.84375 C 2.238281 -6.84375 1.957031 -6.878906 1.71875 -6.953125 C 1.125 -5.890625 0.828125 -4.757812 0.828125 -3.5625 C 0.828125 -1.5 1.800781 -0.46875 3.75 -0.46875 C 5.726562 -0.46875 8.285156 -1.796875 11.421875 -4.453125 C 13.835938 -6.398438 15.898438 -8.460938 17.609375 -10.640625 C 17.960938 -11.117188 18.273438 -11.359375 18.546875 -11.359375 C 18.785156 -11.359375 18.90625 -11.238281 18.90625 -11 C 18.90625 -10.757812 18.75 -10.421875 18.4375 -9.984375 C 17.320312 -8.523438 16.128906 -7.179688 14.859375 -5.953125 C 13.597656 -4.722656 12.234375 -3.59375 10.765625 -2.5625 C 7.710938 -0.34375 5.132812 0.765625 3.03125 0.765625 Z M 3.390625 -8.140625 C 4.898438 -8.140625 6.863281 -8.894531 9.28125 -10.40625 C 10.070312 -10.957031 10.851562 -11.582031 11.625 -12.28125 C 12.394531 -12.976562 13.023438 -13.679688 13.515625 -14.390625 C 14.015625 -15.109375 14.265625 -15.742188 14.265625 -16.296875 C 14.265625 -16.804688 13.851562 -17.0625 13.03125 -17.0625 C 11.832031 -17.0625 10.164062 -16.171875 8.03125 -14.390625 C 7 -13.515625 6.003906 -12.5625 5.046875 -11.53125 C 4.097656 -10.5 3.285156 -9.410156 2.609375 -8.265625 C 2.847656 -8.179688 3.109375 -8.140625 3.390625 -8.140625 Z M 3.390625 -8.140625 "/></g></g><g style="fill:#6b705c;fill-opacity:1;"><g transform="translate(110.89399, 198.65787)"><path style="stroke:none" d="M 12.125 0.296875 C 10.425781 0.296875 9.257812 -0.144531 8.625 -1.03125 C 7.988281 -1.925781 7.671875 -3.128906 7.671875 -4.640625 C 7.671875 -6.304688 8.1875 -8.285156 9.21875 -10.578125 C 9.613281 -11.492188 10.03125 -12.316406 10.46875 -13.046875 C 10.90625 -13.785156 11.359375 -14.472656 11.828125 -15.109375 C 11.671875 -15.066406 11.53125 -15.046875 11.40625 -15.046875 C 11.289062 -15.046875 11.175781 -15.046875 11.0625 -15.046875 C 10.113281 -15.046875 9.320312 -15.71875 8.6875 -17.0625 L 4.28125 -11.359375 C 1.9375 -8.304688 0.507812 -6.78125 0 -6.78125 C -0.195312 -6.78125 -0.296875 -6.859375 -0.296875 -7.015625 C -0.296875 -7.210938 -0.195312 -7.472656 0 -7.796875 C 0.113281 -8.023438 0.351562 -8.335938 0.71875 -8.734375 C 2.21875 -10.484375 3.601562 -12.207031 4.875 -13.90625 C 6.144531 -15.613281 7.195312 -17.28125 8.03125 -18.90625 C 8.9375 -22.351562 10.085938 -24.078125 11.484375 -24.078125 C 12.390625 -24.078125 12.84375 -23.664062 12.84375 -22.84375 C 12.84375 -22.082031 12.347656 -21.085938 11.359375 -19.859375 C 10.410156 -18.628906 9.9375 -17.992188 9.9375 -17.953125 C 9.9375 -17.117188 10.550781 -16.703125 11.78125 -16.703125 C 12.488281 -16.703125 13.28125 -16.960938 14.15625 -17.484375 L 15.703125 -18.4375 C 15.773438 -18.476562 15.894531 -18.5 16.0625 -18.5 C 16.53125 -18.5 16.941406 -18.300781 17.296875 -17.90625 C 17.660156 -17.507812 17.78125 -17.148438 17.65625 -16.828125 L 13.5625 -11.65625 C 11.019531 -8.40625 9.75 -5.789062 9.75 -3.8125 C 9.75 -2.019531 10.625 -1.125 12.375 -1.125 C 13.5625 -1.125 14.835938 -1.476562 16.203125 -2.1875 C 17.566406 -2.90625 18.894531 -3.789062 20.1875 -4.84375 C 21.476562 -5.894531 22.5625 -6.914062 23.4375 -7.90625 L 24.859375 -9.578125 C 24.941406 -9.648438 25.039062 -9.742188 25.15625 -9.859375 C 25.269531 -9.984375 25.367188 -10.046875 25.453125 -10.046875 C 25.734375 -10.046875 25.875 -9.910156 25.875 -9.640625 C 25.875 -9.554688 25.832031 -9.414062 25.75 -9.21875 C 25.664062 -9.019531 25.523438 -8.800781 25.328125 -8.5625 L 23.4375 -6.421875 C 22.519531 -5.390625 21.394531 -4.347656 20.0625 -3.296875 C 18.738281 -2.242188 17.375 -1.378906 15.96875 -0.703125 C 14.5625 -0.0351562 13.28125 0.296875 12.125 0.296875 Z M 12.125 0.296875 "/></g></g><g style="fill:#6b705c;fill-opacity:1;"><g transform="translate(134.324286, 198.65787)"><path style="stroke:none" d="M 4.515625 0.125 C 3.367188 0.125 2.300781 -0.160156 1.3125 -0.734375 C 0.320312 -1.316406 -0.171875 -2.28125 -0.171875 -3.625 C -0.171875 -5.488281 0.488281 -7.707031 1.8125 -10.28125 C 3.144531 -12.863281 4.660156 -15.539062 6.359375 -18.3125 C 11.003906 -25.84375 14.296875 -29.609375 16.234375 -29.609375 C 16.628906 -29.609375 17.035156 -29.457031 17.453125 -29.15625 C 17.867188 -28.863281 18.097656 -28.539062 18.140625 -28.1875 L 13.96875 -22.59375 C 12.34375 -20.414062 10.875 -18.40625 9.5625 -16.5625 C 8.257812 -14.71875 7.132812 -13.0625 6.1875 -11.59375 C 5.707031 -10.84375 5.171875 -9.988281 4.578125 -9.03125 C 3.984375 -8.082031 3.457031 -7.101562 3 -6.09375 C 2.539062 -5.082031 2.3125 -4.0625 2.3125 -3.03125 C 2.3125 -2.550781 2.453125 -2.125 2.734375 -1.75 C 3.015625 -1.375 3.507812 -1.1875 4.21875 -1.1875 C 5.488281 -1.1875 7.15625 -1.867188 9.21875 -3.234375 C 11.28125 -4.609375 13.320312 -6.503906 15.34375 -8.921875 C 15.539062 -9.160156 15.757812 -9.378906 16 -9.578125 C 16.238281 -9.773438 16.4375 -9.875 16.59375 -9.875 C 16.789062 -9.875 16.890625 -9.753906 16.890625 -9.515625 C 16.890625 -9.398438 16.757812 -9.171875 16.5 -8.828125 C 16.238281 -8.492188 16.03125 -8.226562 15.875 -8.03125 L 14.453125 -6.421875 C 13.660156 -5.546875 12.71875 -4.59375 11.625 -3.5625 C 10.53125 -2.53125 9.378906 -1.65625 8.171875 -0.9375 C 6.960938 -0.226562 5.742188 0.125 4.515625 0.125 Z M 4.515625 0.125 "/></g></g><g style="fill:#6b705c;fill-opacity:1;"><g transform="translate(148.77495, 198.65787)"><path style="stroke:none" d="M 1.375 12.1875 C 0.101562 12.1875 -1.007812 11.648438 -1.96875 10.578125 C -2.914062 9.472656 -3.367188 8.242188 -3.328125 6.890625 C -2.847656 7.492188 -2.210938 8.191406 -1.421875 8.984375 C -0.390625 9.972656 0.617188 10.46875 1.609375 10.46875 C 3.867188 10.46875 6.304688 8.664062 8.921875 5.0625 C 9.828125 3.789062 10.765625 2.3125 11.734375 0.625 C 12.710938 -1.0625 13.640625 -2.9375 14.515625 -5 L 16.765625 -10.46875 L 8.03125 -3.625 C 5.332031 -1.519531 3.171875 -0.46875 1.546875 -0.46875 C 0.671875 -0.46875 -0.0195312 -0.785156 -0.53125 -1.421875 C -1.050781 -2.054688 -1.3125 -2.710938 -1.3125 -3.390625 C -1.3125 -5.097656 0.15625 -7.894531 3.09375 -11.78125 C 6.03125 -15.695312 8.226562 -17.65625 9.6875 -17.65625 C 10.914062 -17.65625 11.53125 -17.203125 11.53125 -16.296875 C 11.53125 -15.941406 9.769531 -13.878906 6.25 -10.109375 C 2.757812 -6.378906 1.015625 -3.863281 1.015625 -2.5625 C 1.015625 -2.039062 1.347656 -1.78125 2.015625 -1.78125 C 3.285156 -1.78125 6.039062 -3.425781 10.28125 -6.71875 C 12.03125 -8.101562 13.578125 -9.367188 14.921875 -10.515625 C 16.273438 -11.671875 17.40625 -12.707031 18.3125 -13.625 C 18.632812 -14.019531 18.953125 -14.40625 19.265625 -14.78125 C 19.585938 -15.15625 19.882812 -15.539062 20.15625 -15.9375 C 20.914062 -16.8125 21.671875 -17.25 22.421875 -17.25 C 23.492188 -17.25 24.03125 -16.8125 24.03125 -15.9375 C 24.03125 -15.78125 23.195312 -14.472656 21.53125 -12.015625 C 20.65625 -10.660156 19.957031 -9.617188 19.4375 -8.890625 C 18.925781 -8.160156 18.628906 -7.695312 18.546875 -7.5 C 17.316406 -5.113281 15.4375 -1.644531 12.90625 2.90625 C 9.0625 9.09375 5.21875 12.1875 1.375 12.1875 Z M 1.375 12.1875 "/></g></g><g style="fill:#6b705c;fill-opacity:1;"><g transform="translate(170.778014, 198.65787)"><path style="stroke:none" d=""/></g></g><g style="fill:#6b705c;fill-opacity:1;"><g transform="translate(182.552624, 198.65787)"><path style="stroke:none" d="M 9.09375 6.890625 C 2.988281 6.378906 -0.0625 3.25 -0.0625 -2.5 C -0.0625 -5.90625 1.007812 -9.515625 3.15625 -13.328125 C 4.425781 -15.617188 6.019531 -17.851562 7.9375 -20.03125 C 9.863281 -22.21875 11.960938 -24.191406 14.234375 -25.953125 C 16.515625 -27.722656 18.851562 -29.125 21.25 -30.15625 C 23.65625 -31.1875 25.96875 -31.703125 28.1875 -31.703125 C 32.113281 -31.703125 34.078125 -30.253906 34.078125 -27.359375 C 34.078125 -25.410156 33.484375 -23.25 32.296875 -20.875 C 31.097656 -18.5 29.882812 -16.992188 28.65625 -16.359375 C 28.539062 -16.316406 28.40625 -16.296875 28.25 -16.296875 C 28.125 -16.296875 28.0625 -16.332031 28.0625 -16.40625 L 30.03125 -19.625 C 31.375 -21.84375 32.046875 -23.785156 32.046875 -25.453125 C 32.046875 -26.640625 31.726562 -27.769531 31.09375 -28.84375 C 30.46875 -29.914062 29.34375 -30.453125 27.71875 -30.453125 C 25.726562 -30.453125 23.691406 -29.894531 21.609375 -28.78125 C 19.535156 -27.675781 17.523438 -26.207031 15.578125 -24.375 C 13.640625 -22.550781 11.875 -20.539062 10.28125 -18.34375 C 8.695312 -16.144531 7.429688 -13.972656 6.484375 -11.828125 C 4.460938 -7.273438 3.453125 -3.585938 3.453125 -0.765625 C 3.453125 3.472656 5.613281 5.59375 9.9375 5.59375 C 14.050781 5.59375 19.640625 2.9375 26.703125 -2.375 C 28.328125 -3.601562 30.414062 -5.328125 32.96875 -7.546875 C 35.53125 -9.765625 38.535156 -12.460938 41.984375 -15.640625 C 41.503906 -15.597656 40.90625 -15.546875 40.1875 -15.484375 C 39.476562 -15.429688 38.648438 -15.328125 37.703125 -15.171875 C 37.304688 -15.085938 36.925781 -15.015625 36.5625 -14.953125 C 36.207031 -14.890625 35.875 -14.859375 35.5625 -14.859375 C 34.769531 -14.941406 34.429688 -15.144531 34.546875 -15.46875 C 34.710938 -16.925781 35.46875 -17.65625 36.8125 -17.65625 C 38.039062 -17.5 39.195312 -17.378906 40.28125 -17.296875 C 41.375 -17.222656 42.414062 -17.1875 43.40625 -17.1875 C 44.957031 -18.613281 47.007812 -20.601562 49.5625 -23.15625 C 52.125 -25.71875 55.171875 -28.863281 58.703125 -32.59375 C 63.253906 -37.382812 66.023438 -39.78125 67.015625 -39.78125 C 67.453125 -39.78125 67.671875 -39.382812 67.671875 -38.59375 C 67.671875 -38.28125 67.628906 -37.882812 67.546875 -37.40625 C 67.472656 -36.925781 67.359375 -36.367188 67.203125 -35.734375 C 66.804688 -34.234375 66.390625 -33.320312 65.953125 -33 C 64.722656 -32.132812 63.703125 -31.015625 62.890625 -29.640625 C 62.078125 -28.273438 61.253906 -26.757812 60.421875 -25.09375 C 59.585938 -23.382812 58.820312 -21.863281 58.125 -20.53125 C 57.4375 -19.207031 56.8125 -18.035156 56.25 -17.015625 L 62.03125 -17.125 C 63.457031 -17.125 64.171875 -17.023438 64.171875 -16.828125 C 64.171875 -16.785156 64.128906 -16.726562 64.046875 -16.65625 C 63.367188 -16.21875 60.515625 -15.820312 55.484375 -15.46875 C 51.796875 -8.289062 49.953125 -3.375 49.953125 -0.71875 C 49.953125 1.101562 50.523438 2.015625 51.671875 2.015625 C 52.109375 2.015625 52.664062 1.738281 53.34375 1.1875 C 53.976562 0.675781 54.375 0.421875 54.53125 0.421875 C 54.53125 0.335938 54.550781 0.316406 54.59375 0.359375 C 54.632812 0.398438 54.613281 0.421875 54.53125 0.421875 C 54.332031 1.128906 53.75 1.769531 52.78125 2.34375 C 51.8125 2.925781 50.789062 3.21875 49.71875 3.21875 C 48.726562 3.21875 48.070312 2.898438 47.75 2.265625 C 47.4375 1.628906 47.28125 0.753906 47.28125 -0.359375 C 47.28125 -4.359375 48.804688 -9.453125 51.859375 -15.640625 L 44.71875 -15.46875 C 39.40625 -10.269531 34.070312 -5.707031 28.71875 -1.78125 C 20.195312 4.40625 13.65625 7.296875 9.09375 6.890625 Z M 52.390625 -17.1875 C 52.867188 -18.09375 53.820312 -19.742188 55.25 -22.140625 C 56.675781 -24.546875 58.597656 -27.671875 61.015625 -31.515625 L 45.796875 -17.25 Z M 52.390625 -17.1875 "/></g></g><g style="fill:#6b705c;fill-opacity:1;"><g transform="translate(243.209725, 198.65787)"><path style="stroke:none" d="M 6.84375 0.125 C 4.976562 0.125 3.597656 -0.488281 2.703125 -1.71875 C 1.816406 -2.945312 1.09375 -4.65625 0.53125 -6.84375 C -0.175781 -6.125 -0.671875 -5.765625 -0.953125 -5.765625 C -1.148438 -5.765625 -1.25 -5.925781 -1.25 -6.25 C -1.25 -6.476562 -1.148438 -6.691406 -0.953125 -6.890625 C -0.953125 -6.890625 -0.445312 -7.503906 0.5625 -8.734375 C 1.570312 -9.960938 3.285156 -11.691406 5.703125 -13.921875 L 13.203125 -20.9375 C 14.234375 -21.925781 15.054688 -22.675781 15.671875 -23.1875 C 16.285156 -23.707031 16.734375 -23.96875 17.015625 -23.96875 C 18.273438 -23.96875 18.90625 -23.488281 18.90625 -22.53125 C 18.90625 -22.0625 18.648438 -21.507812 18.140625 -20.875 C 17.742188 -20.394531 17.457031 -20.023438 17.28125 -19.765625 C 17.101562 -19.515625 16.992188 -19.367188 16.953125 -19.328125 C 16.234375 -18.097656 15.578125 -15.894531 14.984375 -12.71875 C 14.546875 -10.382812 14.164062 -8.460938 13.84375 -6.953125 C 13.53125 -5.453125 13.273438 -4.363281 13.078125 -3.6875 C 14.742188 -3.726562 16.390625 -4.242188 18.015625 -5.234375 C 19.640625 -6.222656 21.382812 -7.847656 23.25 -10.109375 C 23.332031 -10.191406 23.453125 -10.3125 23.609375 -10.46875 C 23.765625 -10.625 23.921875 -10.703125 24.078125 -10.703125 C 24.316406 -10.703125 24.4375 -10.601562 24.4375 -10.40625 C 24.4375 -10.207031 24.375 -10.007812 24.25 -9.8125 C 24.132812 -9.613281 24.019531 -9.4375 23.90625 -9.28125 C 22.675781 -7.8125 21.523438 -6.609375 20.453125 -5.671875 C 19.390625 -4.742188 18.257812 -4.007812 17.0625 -3.46875 C 15.875 -2.9375 14.46875 -2.492188 12.84375 -2.140625 L 10.9375 -0.890625 C 10.425781 -0.535156 9.8125 -0.273438 9.09375 -0.109375 C 8.382812 0.046875 7.632812 0.125 6.84375 0.125 Z M 7.546875 -2.90625 C 8.460938 -2.90625 9.21875 -3.125 9.8125 -3.5625 C 10.25 -3.800781 10.675781 -4.46875 11.09375 -5.5625 C 11.507812 -6.65625 11.914062 -8.015625 12.3125 -9.640625 C 12.625 -11.023438 12.867188 -12.378906 13.046875 -13.703125 C 13.234375 -15.035156 13.40625 -16.316406 13.5625 -17.546875 L 13.796875 -19.5625 C 12.878906 -18.882812 11.726562 -17.910156 10.34375 -16.640625 C 8.957031 -15.378906 7.59375 -14.054688 6.25 -12.671875 C 4.894531 -11.273438 4.019531 -10.25 3.625 -9.59375 C 3.226562 -8.945312 3.007812 -8.460938 2.96875 -8.140625 C 2.8125 -6.554688 3.195312 -5.285156 4.125 -4.328125 C 5.0625 -3.378906 6.203125 -2.90625 7.546875 -2.90625 Z M 7.546875 -2.90625 "/></g></g><g style="fill:#6b705c;fill-opacity:1;"><g transform="translate(264.558652, 198.65787)"><path style="stroke:none" d="M 6.84375 0.125 C 4.976562 0.125 3.597656 -0.488281 2.703125 -1.71875 C 1.816406 -2.945312 1.09375 -4.65625 0.53125 -6.84375 C -0.175781 -6.125 -0.671875 -5.765625 -0.953125 -5.765625 C -1.148438 -5.765625 -1.25 -5.925781 -1.25 -6.25 C -1.25 -6.476562 -1.148438 -6.691406 -0.953125 -6.890625 C -0.953125 -6.890625 -0.445312 -7.503906 0.5625 -8.734375 C 1.570312 -9.960938 3.285156 -11.691406 5.703125 -13.921875 L 13.203125 -20.9375 C 14.234375 -21.925781 15.054688 -22.675781 15.671875 -23.1875 C 16.285156 -23.707031 16.734375 -23.96875 17.015625 -23.96875 C 18.273438 -23.96875 18.90625 -23.488281 18.90625 -22.53125 C 18.90625 -22.0625 18.648438 -21.507812 18.140625 -20.875 C 17.742188 -20.394531 17.457031 -20.023438 17.28125 -19.765625 C 17.101562 -19.515625 16.992188 -19.367188 16.953125 -19.328125 C 16.234375 -18.097656 15.578125 -15.894531 14.984375 -12.71875 C 14.546875 -10.382812 14.164062 -8.460938 13.84375 -6.953125 C 13.53125 -5.453125 13.273438 -4.363281 13.078125 -3.6875 C 14.742188 -3.726562 16.390625 -4.242188 18.015625 -5.234375 C 19.640625 -6.222656 21.382812 -7.847656 23.25 -10.109375 C 23.332031 -10.191406 23.453125 -10.3125 23.609375 -10.46875 C 23.765625 -10.625 23.921875 -10.703125 24.078125 -10.703125 C 24.316406 -10.703125 24.4375 -10.601562 24.4375 -10.40625 C 24.4375 -10.207031 24.375 -10.007812 24.25 -9.8125 C 24.132812 -9.613281 24.019531 -9.4375 23.90625 -9.28125 C 22.675781 -7.8125 21.523438 -6.609375 20.453125 -5.671875 C 19.390625 -4.742188 18.257812 -4.007812 17.0625 -3.46875 C 15.875 -2.9375 14.46875 -2.492188 12.84375 -2.140625 L 10.9375 -0.890625 C 10.425781 -0.535156 9.8125 -0.273438 9.09375 -0.109375 C 8.382812 0.046875 7.632812 0.125 6.84375 0.125 Z M 7.546875 -2.90625 C 8.460938 -2.90625 9.21875 -3.125 9.8125 -3.5625 C 10.25 -3.800781 10.675781 -4.46875 11.09375 -5.5625 C 11.507812 -6.65625 11.914062 -8.015625 12.3125 -9.640625 C 12.625 -11.023438 12.867188 -12.378906 13.046875 -13.703125 C 13.234375 -15.035156 13.40625 -16.316406 13.5625 -17.546875 L 13.796875 -19.5625 C 12.878906 -18.882812 11.726562 -17.910156 10.34375 -16.640625 C 8.957031 -15.378906 7.59375 -14.054688 6.25 -12.671875 C 4.894531 -11.273438 4.019531 -10.25 3.625 -9.59375 C 3.226562 -8.945312 3.007812 -8.460938 2.96875 -8.140625 C 2.8125 -6.554688 3.195312 -5.285156 4.125 -4.328125 C 5.0625 -3.378906 6.203125 -2.90625 7.546875 -2.90625 Z M 7.546875 -2.90625 "/></g></g><g style="fill:#6b705c;fill-opacity:1;"><g transform="translate(285.907578, 198.65787)"><path style="stroke:none" d="M 13.140625 -20.453125 C 12.460938 -20.453125 11.875 -20.671875 11.375 -21.109375 C 10.882812 -21.546875 10.640625 -22.039062 10.640625 -22.59375 C 10.640625 -23.707031 11.394531 -24.265625 12.90625 -24.265625 C 13.457031 -24.265625 14.007812 -24.078125 14.5625 -23.703125 C 15.125 -23.328125 15.40625 -22.859375 15.40625 -22.296875 C 15.40625 -21.828125 15.144531 -21.398438 14.625 -21.015625 C 14.113281 -20.640625 13.617188 -20.453125 13.140625 -20.453125 Z M 2.140625 0.65625 C 1.265625 0.65625 0.539062 0.367188 -0.03125 -0.203125 C -0.601562 -0.785156 -0.890625 -1.804688 -0.890625 -3.265625 C -0.890625 -4.097656 -0.703125 -5.0625 -0.328125 -6.15625 C 0.046875 -7.25 0.519531 -8.347656 1.09375 -9.453125 C 1.675781 -10.566406 2.242188 -11.554688 2.796875 -12.421875 C 5.015625 -16.035156 6.835938 -17.863281 8.265625 -17.90625 C 8.617188 -17.90625 9.050781 -17.753906 9.5625 -17.453125 C 10.082031 -17.160156 10.34375 -16.832031 10.34375 -16.46875 C 10.34375 -16.46875 8.835938 -14.523438 5.828125 -10.640625 C 2.859375 -6.796875 1.375 -4.0625 1.375 -2.4375 C 1.375 -1.164062 1.867188 -0.53125 2.859375 -0.53125 C 3.492188 -0.53125 4.316406 -0.796875 5.328125 -1.328125 C 6.335938 -1.867188 7.394531 -2.554688 8.5 -3.390625 C 9.613281 -4.222656 10.675781 -5.113281 11.6875 -6.0625 C 12.695312 -7.019531 13.519531 -7.894531 14.15625 -8.6875 C 14.550781 -9.195312 14.894531 -9.550781 15.1875 -9.75 C 15.488281 -9.945312 15.679688 -10.046875 15.765625 -10.046875 C 15.921875 -10.046875 16 -9.925781 16 -9.6875 C 16 -9.488281 15.769531 -9.09375 15.3125 -8.5 C 14.851562 -7.90625 14.226562 -7.210938 13.4375 -6.421875 C 12.488281 -5.472656 11.4375 -4.441406 10.28125 -3.328125 C 9.132812 -2.222656 7.882812 -1.28125 6.53125 -0.5 C 5.1875 0.269531 3.722656 0.65625 2.140625 0.65625 Z M 2.140625 0.65625 "/></g></g><g style="fill:#6b705c;fill-opacity:1;"><g transform="translate(299.347284, 198.65787)"><path style="stroke:none" d="M 6.84375 0.125 C 4.976562 0.125 3.597656 -0.488281 2.703125 -1.71875 C 1.816406 -2.945312 1.09375 -4.65625 0.53125 -6.84375 C -0.175781 -6.125 -0.671875 -5.765625 -0.953125 -5.765625 C -1.148438 -5.765625 -1.25 -5.925781 -1.25 -6.25 C -1.25 -6.476562 -1.148438 -6.691406 -0.953125 -6.890625 C -0.953125 -6.890625 -0.445312 -7.503906 0.5625 -8.734375 C 1.570312 -9.960938 3.285156 -11.691406 5.703125 -13.921875 L 13.203125 -20.9375 C 14.234375 -21.925781 15.054688 -22.675781 15.671875 -23.1875 C 16.285156 -23.707031 16.734375 -23.96875 17.015625 -23.96875 C 18.273438 -23.96875 18.90625 -23.488281 18.90625 -22.53125 C 18.90625 -22.0625 18.648438 -21.507812 18.140625 -20.875 C 17.742188 -20.394531 17.457031 -20.023438 17.28125 -19.765625 C 17.101562 -19.515625 16.992188 -19.367188 16.953125 -19.328125 C 16.234375 -18.097656 15.578125 -15.894531 14.984375 -12.71875 C 14.546875 -10.382812 14.164062 -8.460938 13.84375 -6.953125 C 13.53125 -5.453125 13.273438 -4.363281 13.078125 -3.6875 C 14.742188 -3.726562 16.390625 -4.242188 18.015625 -5.234375 C 19.640625 -6.222656 21.382812 -7.847656 23.25 -10.109375 C 23.332031 -10.191406 23.453125 -10.3125 23.609375 -10.46875 C 23.765625 -10.625 23.921875 -10.703125 24.078125 -10.703125 C 24.316406 -10.703125 24.4375 -10.601562 24.4375 -10.40625 C 24.4375 -10.207031 24.375 -10.007812 24.25 -9.8125 C 24.132812 -9.613281 24.019531 -9.4375 23.90625 -9.28125 C 22.675781 -7.8125 21.523438 -6.609375 20.453125 -5.671875 C 19.390625 -4.742188 18.257812 -4.007812 17.0625 -3.46875 C 15.875 -2.9375 14.46875 -2.492188 12.84375 -2.140625 L 10.9375 -0.890625 C 10.425781 -0.535156 9.8125 -0.273438 9.09375 -0.109375 C 8.382812 0.046875 7.632812 0.125 6.84375 0.125 Z M 7.546875 -2.90625 C 8.460938 -2.90625 9.21875 -3.125 9.8125 -3.5625 C 10.25 -3.800781 10.675781 -4.46875 11.09375 -5.5625 C 11.507812 -6.65625 11.914062 -8.015625 12.3125 -9.640625 C 12.625 -11.023438 12.867188 -12.378906 13.046875 -13.703125 C 13.234375 -15.035156 13.40625 -16.316406 13.5625 -17.546875 L 13.796875 -19.5625 C 12.878906 -18.882812 11.726562 -17.910156 10.34375 -16.640625 C 8.957031 -15.378906 7.59375 -14.054688 6.25 -12.671875 C 4.894531 -11.273438 4.019531 -10.25 3.625 -9.59375 C 3.226562 -8.945312 3.007812 -8.460938 2.96875 -8.140625 C 2.8125 -6.554688 3.195312 -5.285156 4.125 -4.328125 C 5.0625 -3.378906 6.203125 -2.90625 7.546875 -2.90625 Z M 7.546875 -2.90625 "/></g></g><g style="fill:#6b705c;fill-opacity:1;"><g transform="translate(320.69621, 198.65787)"><path style="stroke:none" d="M 3.6875 0.359375 C 2.414062 0.359375 1.410156 0.0507812 0.671875 -0.5625 C -0.0546875 -1.175781 -0.421875 -2.273438 -0.421875 -3.859375 C -0.421875 -4.773438 -0.144531 -5.9375 0.40625 -7.34375 C 0.96875 -8.75 1.664062 -10.265625 2.5 -11.890625 C 3.332031 -13.515625 4.164062 -15.117188 5 -16.703125 C 4.476562 -16.585938 4.019531 -16.53125 3.625 -16.53125 C 2.4375 -16.53125 1.84375 -16.988281 1.84375 -17.90625 C 1.84375 -18.332031 2.007812 -18.664062 2.34375 -18.90625 C 2.6875 -19.144531 2.992188 -19.285156 3.265625 -19.328125 C 3.265625 -19.328125 3.3125 -19.328125 3.40625 -19.328125 C 3.507812 -19.328125 3.644531 -19.347656 3.8125 -19.390625 L 7.25 -19.390625 C 7.96875 -20.296875 8.703125 -21.265625 9.453125 -22.296875 C 10.523438 -23.648438 11.378906 -24.441406 12.015625 -24.671875 L 12.1875 -24.671875 C 12.46875 -24.671875 12.863281 -24.535156 13.375 -24.265625 C 14.007812 -23.910156 14.328125 -23.550781 14.328125 -23.1875 C 14.328125 -22.675781 13.378906 -21.347656 11.484375 -19.203125 C 11.835938 -19.171875 12.347656 -19.15625 13.015625 -19.15625 C 13.691406 -19.15625 14.523438 -19.15625 15.515625 -19.15625 C 15.992188 -19.15625 16.675781 -19.15625 17.5625 -19.15625 C 18.457031 -19.15625 19.390625 -19.160156 20.359375 -19.171875 C 21.335938 -19.191406 22.179688 -19.210938 22.890625 -19.234375 C 23.609375 -19.253906 24.003906 -19.265625 24.078125 -19.265625 C 24.203125 -19.222656 24.265625 -19.164062 24.265625 -19.09375 C 24.265625 -18.726562 21.925781 -18.25 17.25 -17.65625 C 14.59375 -17.300781 12.5625 -17.023438 11.15625 -16.828125 C 9.75 -16.628906 8.984375 -16.507812 8.859375 -16.46875 C 8.304688 -16 7.632812 -15.1875 6.84375 -14.03125 C 6.050781 -12.882812 5.253906 -11.597656 4.453125 -10.171875 C 3.660156 -8.742188 3 -7.382812 2.46875 -6.09375 C 1.9375 -4.800781 1.671875 -3.800781 1.671875 -3.09375 C 1.671875 -2.457031 1.90625 -1.929688 2.375 -1.515625 C 2.851562 -1.097656 3.628906 -0.890625 4.703125 -0.890625 C 5.410156 -0.890625 6.257812 -1.046875 7.25 -1.359375 C 8.238281 -1.679688 9.179688 -2.050781 10.078125 -2.46875 C 10.972656 -2.882812 11.617188 -3.210938 12.015625 -3.453125 C 13.046875 -4.085938 14.1875 -4.925781 15.4375 -5.96875 C 16.6875 -7.019531 17.925781 -8.222656 19.15625 -9.578125 C 19.707031 -10.128906 20.082031 -10.40625 20.28125 -10.40625 C 20.394531 -10.40625 20.453125 -10.328125 20.453125 -10.171875 C 20.453125 -9.847656 20.15625 -9.332031 19.5625 -8.625 C 18.613281 -7.46875 17.550781 -6.363281 16.375 -5.3125 C 15.207031 -4.269531 13.910156 -3.3125 12.484375 -2.4375 C 10.859375 -1.445312 9.300781 -0.734375 7.8125 -0.296875 C 6.332031 0.140625 4.957031 0.359375 3.6875 0.359375 Z M 3.6875 0.359375 "/></g></g></g></svg>